<?xml version="1.0" standalone="no"?>
<!DOCTYPE svg PUBLIC "-//W3C//DTD SVG 20010904//EN"
 "http://www.w3.org/TR/2001/REC-SVG-20010904/DTD/svg10.dtd">
<svg version="1.0" xmlns="http://www.w3.org/2000/svg"
 width="700.000000pt" height="500.000000pt" viewBox="0 0 700.000000 500.000000"
 preserveAspectRatio="xMidYMid meet">

<g transform="translate(0.000000,500.000000) scale(0.100000,-0.100000)"
fill="#000000" stroke="none">
<path d="M1765 3104 c-16 -8 -38 -22 -47 -31 -21 -19 -58 -114 -58 -147 0 -35
-293 -690 -326 -729 -35 -41 -54 -87 -54 -130 0 -50 28 -123 59 -154 46 -47
131 -102 167 -109 23 -4 115 10 287 45 138 28 308 60 377 71 69 11 145 25 170
30 25 5 98 14 163 20 123 12 217 34 217 50 0 6 3 9 8 8 12 -4 62 34 56 43 -9
15 30 -4 43 -20 7 -9 13 -12 13 -8 0 5 7 1 16 -7 17 -18 25 -19 139 -16 111 2
172 16 213 47 20 15 32 21 28 15 -4 -7 -1 -12 8 -12 9 0 16 -4 16 -9 0 -11 40
-22 53 -14 6 3 2 12 -8 20 -11 7 -14 13 -8 13 13 0 39 -30 27 -30 -5 0 -2 -4
6 -9 23 -15 33 -1 14 20 -17 19 -17 20 1 13 12 -5 16 -4 12 3 -5 7 74 11 251
12 566 4 1267 -73 1841 -200 152 -34 157 -34 244 31 93 70 112 160 47 234 -30
34 -340 715 -340 746 0 9 -7 40 -16 69 -11 39 -23 57 -47 71 -31 19 -56 20
-677 20 -878 -1 -1341 2 -1306 7 22 4 26 7 15 14 -11 6 -8 9 11 10 20 1 18 3
-10 9 -42 10 -375 15 -390 5 -5 -3 -10 -3 -10 0 0 3 -12 -6 -27 -20 -31 -28
-43 -31 -61 -13 -7 7 -12 8 -12 2 0 -5 -3 -5 -8 1 -4 6 -21 18 -39 28 -28 15
-65 17 -360 17 -255 -1 -333 -4 -352 -14 -21 -11 -30 -11 -57 0 -48 20 -249
19 -289 -2z m215 -193 c0 -5 -7 -14 -16 -22 -8 -7 -22 -26 -31 -42 -21 -42
-263 -599 -263 -607 0 -12 162 19 187 35 14 9 27 14 30 11 8 -7 -46 -134 -60
-143 -17 -10 -367 -82 -367 -75 0 3 11 17 24 31 29 30 345 734 353 786 l6 35
68 0 c38 0 69 -4 69 -9z m502 4 c3 -3 -5 -34 -17 -68 -18 -49 -27 -61 -42 -59
-66 12 -88 14 -127 8 -44 -7 -45 -8 -70 -73 -14 -37 -24 -69 -21 -71 4 -4 94
11 131 23 21 7 21 4 -8 -78 l-30 -85 -26 13 c-15 7 -48 10 -73 8 l-47 -5 -41
-106 c-23 -59 -41 -111 -41 -116 0 -12 139 4 179 20 19 8 36 13 38 11 2 -2 -7
-33 -19 -68 l-23 -64 -170 -27 c-222 -35 -213 -35 -182 1 30 36 287 676 287
714 l0 27 148 0 c82 0 151 -2 154 -5z m289 -5 c10 -6 19 -19 19 -29 0 -28
-141 -563 -156 -592 -7 -15 -27 -31 -43 -37 -40 -14 -255 -36 -275 -29 -9 4
-16 17 -16 29 0 13 45 159 101 325 81 245 105 307 126 323 22 17 41 20 125 20
55 0 108 -5 119 -10z m553 -9 c15 -17 16 -31 6 -147 -8 -88 -16 -134 -26 -144
-10 -10 -44 -17 -107 -20 l-92 -5 -18 -115 c-9 -63 -15 -132 -12 -152 l5 -38
-54 0 c-29 0 -68 -3 -87 -7 l-33 -6 21 29 c25 36 118 537 110 590 l-6 34 138
0 c122 0 140 -2 155 -19z m356 -8 c0 -16 3 -45 7 -67 6 -36 5 -38 -15 -27 -11
6 -57 11 -101 11 l-81 0 0 -55 0 -55 56 0 c30 0 64 5 75 10 18 10 19 7 19 -65
0 -72 -1 -75 -19 -65 -11 5 -47 10 -80 10 l-61 0 0 -95 0 -95 91 0 c50 0 99 5
109 10 17 9 19 5 25 -34 13 -85 24 -81 -188 -84 -103 -1 -187 0 -187 3 0 3 6
16 14 28 19 29 52 537 37 565 -6 11 -7 22 -4 26 3 3 73 6 155 6 l148 0 0 -27z
m328 9 c12 -12 24 -53 36 -123 l17 -104 -27 -21 c-26 -22 -26 -22 -5 -29 35
-11 47 -43 66 -165 10 -63 26 -130 36 -147 l18 -33 -72 0 c-85 0 -101 7 -89
39 10 27 -15 239 -31 259 -9 11 -78 17 -88 7 -11 -11 19 -245 35 -270 l16 -25
-85 0 c-86 0 -94 4 -76 38 13 24 -22 549 -38 565 -6 6 -11 15 -11 19 0 4 63 8
140 8 122 0 142 -2 158 -18z m388 -27 c6 -22 14 -52 18 -67 l6 -27 -35 14
c-19 8 -64 15 -100 15 l-66 0 7 -37 c17 -90 15 -88 75 -87 30 1 62 3 73 5 15
3 22 -7 37 -61 24 -85 24 -97 3 -79 -16 13 -144 30 -144 19 1 -3 11 -48 23
-100 l23 -95 59 -8 c56 -7 112 -6 144 4 9 3 19 -16 32 -60 10 -36 17 -66 16
-66 -1 -1 -86 5 -190 14 -181 15 -187 16 -180 36 3 11 6 30 5 43 -4 58 -94
510 -107 540 -8 18 -15 35 -15 38 0 2 68 3 152 2 l152 -3 12 -40z m154 16 c0
-49 179 -602 207 -640 l26 -33 -64 6 c-115 12 -115 13 -111 49 5 40 -152 580
-180 620 l-19 27 70 0 71 0 0 -29z m339 2 c29 -28 111 -218 111 -257 0 -11 -7
-28 -17 -38 -9 -10 -11 -18 -5 -18 6 0 24 -11 41 -25 22 -19 44 -62 87 -173
32 -81 71 -167 87 -191 25 -36 26 -42 11 -38 -11 3 -41 9 -69 12 -80 10 -85
13 -85 46 0 34 -93 287 -112 304 -20 19 -88 27 -88 11 0 -29 94 -273 117 -303
27 -37 29 -37 -72 -22 l-75 11 0 34 c0 40 -186 598 -212 636 -10 14 -18 29
-18 32 0 3 61 6 135 6 133 0 135 0 164 -27z m394 -8 c8 -52 314 -733 348 -777
16 -20 29 -39 29 -41 0 -4 -28 2 -147 28 -17 4 -23 13 -23 31 0 20 -141 367
-155 382 -2 2 -18 -10 -36 -26 l-33 -29 54 -129 c29 -71 66 -147 81 -168 16
-22 28 -41 26 -42 -1 -1 -39 5 -84 14 -82 16 -83 16 -83 46 0 35 -250 656
-280 698 -11 15 -20 32 -20 38 0 6 55 10 159 10 l158 0 6 -35z"/>
<path d="M2587 2798 c-15 -11 -147 -411 -147 -445 0 -15 48 -17 83 -4 21 8 31
34 86 226 34 119 59 220 56 226 -9 13 -58 11 -78 -3z"/>
<path d="M3137 2813 c-3 -5 -8 -34 -11 -65 l-7 -58 46 0 c40 0 47 3 55 26 15
40 12 91 -6 98 -22 8 -72 8 -77 -1z"/>
<path d="M3852 2811 c-10 -6 -12 -22 -7 -65 l7 -57 47 3 46 3 -3 50 c-1 27 -6
52 -10 56 -13 12 -67 19 -80 10z"/>
<path d="M4752 2788 c2 -7 12 -39 22 -70 18 -54 21 -57 59 -63 54 -10 64 3 43
57 -31 76 -42 88 -87 88 -28 0 -39 -4 -37 -12z"/>
<path d="M5134 2764 c4 -15 20 -56 37 -92 l29 -66 34 33 34 33 -22 50 c-22 52
-44 68 -93 68 -22 0 -24 -3 -19 -26z"/>
<path d="M3368 2063 c7 -3 16 -2 19 1 4 3 -2 6 -13 5 -11 0 -14 -3 -6 -6z"/>
</g>
</svg>
